<svg width="20" height="20" viewBox="0 0 20 20" fill="none" xmlns="http://www.w3.org/2000/svg">
<path d="M4.79297 15.0013C4.79297 15.1164 4.88624 15.2096 5.0013 15.2096H15.0013C15.1164 15.2096 15.2096 15.1164 15.2096 15.0013V12.5013H16.4596V15.0013C16.4596 15.8067 15.8067 16.4596 15.0013 16.4596H5.0013C4.19589 16.4596 3.54297 15.8067 3.54297 15.0013V12.5013H4.79297V15.0013Z" fill="#969696"/>
<path d="M10.6263 11.8258L12.8927 9.55941L13.7765 10.4432L10.4432 13.7765L10.396 13.8197C10.1505 14.0199 9.78824 14.0054 9.55941 13.7765L6.22607 10.4432L7.10986 9.55941L9.3763 11.8258V4.16797H10.6263V11.8258Z" fill="#969696"/>
</svg>
