<svg width="24" height="24" viewBox="0 0 24 24" fill="none" xmlns="http://www.w3.org/2000/svg">
<path d="M5.75 18C5.75 18.1381 5.86193 18.25 6 18.25H18C18.1381 18.25 18.25 18.1381 18.25 18V15H19.75V18C19.75 18.9665 18.9665 19.75 18 19.75H6C5.0335 19.75 4.25 18.9665 4.25 18V15H5.75V18Z" fill="#4E4E4E"/>
<path d="M12.75 14.1895L15.4697 11.4697L16.5303 12.5303L12.5303 16.5303L12.4736 16.582C12.1791 16.8223 11.7443 16.8049 11.4697 16.5303L7.46973 12.5303L8.53027 11.4697L11.25 14.1895V5H12.75V14.1895Z" fill="#4E4E4E"/>
</svg>
