<svg width="24" height="24" viewBox="0 0 24 24" fill="none" xmlns="http://www.w3.org/2000/svg">
<path d="M15 2C15.5523 2 16 2.44772 16 3V4L19 4C20.1046 4 21 4.89543 21 6L21 20C21 21.0357 20.2128 21.887 19.2041 21.9893L19 22L5 22L4.7959 21.9893C3.85435 21.8938 3.1062 21.1457 3.01074 20.2041L3 20L3 6C3 4.89543 3.89543 4 5 4L8 4V3C8 2.44772 8.44772 2 9 2C9.55228 2 10 2.44772 10 3V4L14 4V3C14 2.44772 14.4477 2 15 2ZM4.5 11L4.5 20C4.5 20.2761 4.72386 20.5 5 20.5L19 20.5C19.2761 20.5 19.5 20.2761 19.5 20L19.5 11L4.5 11ZM10.5996 17C10.8205 17 11 17.1795 11 17.4004L11 18.5996C11 18.8205 10.8205 19 10.5996 19H9.40039C9.17948 19 9 18.8205 9 18.5996V17.4004C9 17.1795 9.17948 17 9.40039 17H10.5996ZM14.5996 17C14.8205 17 15 17.1795 15 17.4004L15 18.5996C15 18.8205 14.8205 19 14.5996 19L13.4004 19C13.1795 19 13 18.8205 13 18.5996L13 17.4004C13 17.1795 13.1795 17 13.4004 17H14.5996ZM10.5996 13C10.8205 13 11 13.1795 11 13.4004V14.5996C11 14.8205 10.8205 15 10.5996 15H9.40039C9.17948 15 9 14.8205 9 14.5996V13.4004C9 13.1795 9.17948 13 9.40039 13H10.5996ZM14.5996 13C14.8205 13 15 13.1795 15 13.4004V14.5996C15 14.8205 14.8205 15 14.5996 15H13.4004C13.1795 15 13 14.8205 13 14.5996V13.4004C13 13.1795 13.1795 13 13.4004 13H14.5996ZM5 5.5C4.72386 5.5 4.5 5.72386 4.5 6V9.5L19.5 9.5V6C19.5 5.72386 19.2761 5.5 19 5.5L16 5.5V6C16 6.55228 15.5523 7 15 7C14.4477 7 14 6.55228 14 6V5.5H10V6C10 6.55228 9.55228 7 9 7C8.44772 7 8 6.55228 8 6V5.5L5 5.5Z" fill="#121212"/>
</svg>
