<svg width="20" height="20" viewBox="0 0 20 20" fill="none" xmlns="http://www.w3.org/2000/svg">
<path d="M9.25521 9.9987L12.5052 13.2487C12.658 13.4015 12.7344 13.5959 12.7344 13.832C12.7344 14.0681 12.658 14.2626 12.5052 14.4154C12.3524 14.5681 12.158 14.6445 11.9219 14.6445C11.6858 14.6445 11.4913 14.5681 11.3385 14.4154L7.50521 10.582C7.42188 10.4987 7.36285 10.4084 7.32813 10.3112C7.2934 10.214 7.27604 10.1098 7.27604 9.9987C7.27604 9.88759 7.2934 9.78342 7.32813 9.6862C7.36285 9.58898 7.42188 9.4987 7.50521 9.41536L11.3385 5.58203C11.4913 5.42925 11.6858 5.35286 11.9219 5.35286C12.158 5.35286 12.3524 5.42925 12.5052 5.58203C12.658 5.73481 12.7344 5.92925 12.7344 6.16536C12.7344 6.40148 12.658 6.59592 12.5052 6.7487L9.25521 9.9987Z" fill="#B0B0B0"/>
</svg>
