<svg width="20" height="20" viewBox="0 0 20 20" fill="none" xmlns="http://www.w3.org/2000/svg">
<path d="M10.7526 10.0013L7.5026 6.7513C7.34983 6.59852 7.27344 6.40408 7.27344 6.16797C7.27344 5.93186 7.34983 5.73741 7.5026 5.58464C7.65538 5.43186 7.84983 5.35547 8.08594 5.35547C8.32205 5.35547 8.51649 5.43186 8.66927 5.58464L12.5026 9.41797C12.5859 9.5013 12.645 9.59158 12.6797 9.6888C12.7144 9.78602 12.7318 9.89019 12.7318 10.0013C12.7318 10.1124 12.7144 10.2166 12.6797 10.3138C12.645 10.411 12.5859 10.5013 12.5026 10.5846L8.66927 14.418C8.51649 14.5707 8.32205 14.6471 8.08594 14.6471C7.84983 14.6471 7.65538 14.5707 7.5026 14.418C7.34983 14.2652 7.27344 14.0707 7.27344 13.8346C7.27344 13.5985 7.34983 13.4041 7.5026 13.2513L10.7526 10.0013Z" fill="#B0B0B0"/>
</svg>
