<svg width="20" height="20" viewBox="0 0 20 20" fill="none" xmlns="http://www.w3.org/2000/svg">
<path d="M6.23047 5.35938C6.46635 5.35945 6.66079 5.43529 6.81348 5.58789L10.6465 9.42188C10.7298 9.50521 10.7895 9.59516 10.8242 9.69238C10.8589 9.78958 10.876 9.89381 10.876 10.0049C10.876 10.116 10.8589 10.2202 10.8242 10.3174C10.7895 10.4146 10.7298 10.5046 10.6465 10.5879L6.81348 14.4219C6.66079 14.5745 6.46635 14.6503 6.23047 14.6504C5.99436 14.6504 5.79926 14.5747 5.64648 14.4219C5.49371 14.2691 5.41797 14.074 5.41797 13.8379C5.41804 13.602 5.49389 13.4076 5.64648 13.2549L8.89648 10.0049L5.64648 6.75488C5.49389 6.6022 5.41804 6.40776 5.41797 6.17188C5.41797 5.93576 5.49371 5.74067 5.64648 5.58789C5.79926 5.43511 5.99436 5.35938 6.23047 5.35938ZM10.0215 5.35938C10.2576 5.35938 10.4527 5.43511 10.6055 5.58789L14.4385 9.42188C14.5217 9.50513 14.5805 9.59528 14.6152 9.69238C14.65 9.7896 14.667 9.89377 14.667 10.0049C14.667 10.116 14.65 10.2202 14.6152 10.3174C14.5805 10.4145 14.5217 10.5046 14.4385 10.5879L10.6055 14.4219C10.4527 14.5747 10.2576 14.6504 10.0215 14.6504C9.78557 14.6504 9.59118 14.5745 9.43848 14.4219C9.2857 14.2691 9.20898 14.074 9.20898 13.8379C9.20905 13.6019 9.28577 13.4076 9.43848 13.2549L12.6885 10.0049L9.43848 6.75488C9.28577 6.60218 9.20905 6.40784 9.20898 6.17188C9.20898 5.93576 9.2857 5.74067 9.43848 5.58789C9.59118 5.43531 9.78557 5.35941 10.0215 5.35938Z" fill="#B0B0B0"/>
</svg>
