<svg width="20" height="20" viewBox="0 0 20 20" fill="none" xmlns="http://www.w3.org/2000/svg">
<path d="M10.0635 5.35156C10.2995 5.35156 10.4937 5.42844 10.6465 5.58105C10.7992 5.73373 10.8759 5.92817 10.876 6.16406C10.876 6.40017 10.7993 6.59527 10.6465 6.74805L7.39648 9.99805L10.6465 13.248C10.7992 13.4008 10.8759 13.595 10.876 13.8311C10.876 14.0671 10.7992 14.2613 10.6465 14.4141C10.4937 14.5668 10.2996 14.6436 10.0635 14.6436C9.82737 14.6436 9.63325 14.5668 9.48047 14.4141L5.64648 10.5811C5.56332 10.4978 5.50442 10.4076 5.46973 10.3105C5.43502 10.2134 5.41799 10.1091 5.41797 9.99805C5.41797 9.88699 5.43504 9.78273 5.46973 9.68555C5.50445 9.58832 5.56315 9.4974 5.64648 9.41406L9.48047 5.58105C9.63321 5.42844 9.82749 5.35156 10.0635 5.35156ZM13.876 5.35156C14.1121 5.35156 14.3072 5.42828 14.46 5.58105C14.6125 5.7337 14.6884 5.92826 14.6885 6.16406C14.6885 6.40009 14.6126 6.59529 14.46 6.74805L11.209 9.99805L14.459 13.248C14.6117 13.4008 14.6884 13.595 14.6885 13.8311C14.6885 14.0672 14.6118 14.2613 14.459 14.4141C14.3062 14.5668 14.1121 14.6436 13.876 14.6436C13.6399 14.6435 13.4457 14.5668 13.293 14.4141L9.45898 10.5811C9.37585 10.4978 9.31691 10.4076 9.28223 10.3105C9.24752 10.2134 9.23049 10.1091 9.23047 9.99805C9.23047 9.88701 9.24755 9.78271 9.28223 9.68555C9.31695 9.58832 9.37565 9.4974 9.45898 9.41406L13.293 5.58105C13.4457 5.42842 13.64 5.3516 13.876 5.35156Z" fill="#B0B0B0"/>
</svg>
