<svg width="24" height="24" viewBox="0 0 24 24" fill="none" xmlns="http://www.w3.org/2000/svg">
<path d="M16.9648 4.40039L7.13477 19.9004L5.86719 19.0977L15.6973 3.59766L16.9648 4.40039Z" fill="#121212"/>
<path d="M17.1973 6.6084C17.7861 6.92532 18.3307 7.27946 18.8203 7.65527C19.6872 8.32021 20.4032 9.06211 20.9092 9.79102C21.4011 10.5 21.75 11.277 21.75 12C21.75 12.723 21.4001 13.5 20.9092 14.209C20.4032 14.9379 19.6871 15.6788 18.8213 16.3447C17.0913 17.6727 14.684 18.75 12 18.75C11.1942 18.75 10.4139 18.6513 9.66895 18.4795L10.5303 17.1221C11.0084 17.2034 11.4994 17.25 12 17.25C14.287 17.25 16.3802 16.3273 17.9072 15.1553C18.6692 14.5703 19.2708 13.9365 19.6768 13.3535C20.0956 12.7496 20.25 12.277 20.25 12C20.25 11.723 20.0956 11.2504 19.6768 10.6465C19.2708 10.0635 18.6692 9.42972 17.9072 8.84473C17.45 8.49376 16.9414 8.1661 16.3926 7.87793L17.1973 6.6084ZM12 5.25C13.3629 5.25 14.6538 5.52921 15.8213 5.97656L15 7.27246C14.0652 6.94677 13.0534 6.75 12 6.75C9.713 6.75 7.61977 7.67273 6.09277 8.84473C5.33078 9.42972 4.72924 10.0635 4.32324 10.6465C3.90435 11.2504 3.75 11.723 3.75 12C3.75 12.277 3.90435 12.7496 4.32324 13.3535C4.72924 13.9365 5.33078 14.5703 6.09277 15.1553C6.91712 15.788 7.90715 16.3461 9.00293 16.7275L8.18066 18.0244C7.0482 17.5907 6.03169 16.9988 5.17969 16.3447C4.31283 15.6798 3.59676 14.9379 3.09082 14.209C2.59985 13.5 2.25 12.723 2.25 12C2.25 11.277 2.59985 10.5 3.09082 9.79102C3.59676 9.0621 4.31285 8.32121 5.17871 7.65527C6.90971 6.32727 9.316 5.25 12 5.25ZM15.1084 9.90332C15.5234 10.5183 15.75 11.2473 15.75 12C15.75 12.9946 15.3546 13.9481 14.6514 14.6514C13.9481 15.3546 12.9946 15.75 12 15.75C11.8075 15.75 11.6166 15.7341 11.4287 15.7051L12.373 14.2158C12.8312 14.1386 13.258 13.9237 13.5908 13.5908C14.0128 13.1689 14.25 12.5967 14.25 12C14.25 11.7926 14.2192 11.5888 14.1641 11.3926L15.1084 9.90332ZM12 8.25C12.7173 8.25 13.4127 8.45649 14.0088 8.83496L13.2051 10.1025C12.8473 9.87523 12.4306 9.75 12 9.75C11.4033 9.75 10.8311 9.98722 10.4092 10.4092C9.98722 10.8311 9.75 11.4033 9.75 12C9.75 12.5967 9.98722 13.1689 10.4092 13.5908C10.5272 13.7088 10.6581 13.8105 10.7969 13.8984L9.99316 15.166C9.76203 15.0195 9.54522 14.848 9.34863 14.6514C8.64537 13.9481 8.25 12.9946 8.25 12C8.25 11.0054 8.64537 10.0519 9.34863 9.34863C10.0519 8.64537 11.0054 8.25 12 8.25Z" fill="#121212"/>
</svg>
