<svg width="20" height="20" viewBox="0 0 20 20" fill="none" xmlns="http://www.w3.org/2000/svg">
<path fill-rule="evenodd" clip-rule="evenodd" d="M11.4232 1.67692C11.8263 1.71934 12.2025 1.90788 12.4787 2.20996L16.2303 6.31315C16.5112 6.62032 16.6673 7.02161 16.6673 7.43783V16.668C16.6673 17.5884 15.9211 18.3346 15.0007 18.3346H5.00065C4.08018 18.3346 3.33398 17.5884 3.33398 16.668V3.33464C3.33398 2.41416 4.08018 1.66797 5.00065 1.66797H11.249L11.4232 1.67692ZM5.00065 2.91797C4.79922 2.91797 4.63089 3.06084 4.59212 3.25081L4.58398 3.33464V16.668C4.58398 16.8981 4.77053 17.0846 5.00065 17.0846H15.0007C15.2021 17.0846 15.3704 16.9418 15.4092 16.7518L15.4173 16.668V8.1263H11.6673C10.8619 8.1263 10.209 7.47338 10.209 6.66797V2.91797H5.00065ZM11.459 6.66797C11.459 6.78303 11.5523 6.8763 11.6673 6.8763H15.0519L11.5558 3.05306C11.5275 3.02221 11.4944 2.99734 11.459 2.97656V6.66797Z" fill="#6B6B6B"/>
</svg>
