<svg width="10" height="10" viewBox="0 0 10 10" fill="none" xmlns="http://www.w3.org/2000/svg">
<path d="M4.64551 0C4.88149 4.06481e-08 5.07577 0.0768768 5.22852 0.229492C5.38119 0.382165 5.4579 0.576609 5.45801 0.8125C5.45801 1.04861 5.38129 1.24371 5.22852 1.39648L1.97852 4.64648L5.22852 7.89648C5.38126 8.04923 5.45797 8.24345 5.45801 8.47949C5.45801 8.71556 5.38124 8.90973 5.22852 9.0625C5.07574 9.21528 4.88162 9.29199 4.64551 9.29199C4.4094 9.29199 4.21528 9.21528 4.0625 9.0625L0.228516 5.22949C0.145352 5.14627 0.0864531 5.05606 0.0517578 4.95898C0.0170527 4.86181 1.70722e-05 4.75753 0 4.64648C9.7088e-09 4.53543 0.0170702 4.43117 0.0517578 4.33398C0.08648 4.23676 0.145182 4.14583 0.228516 4.0625L4.0625 0.229492C4.21524 0.0768768 4.40952 -2.06305e-08 4.64551 0ZM8.45801 0C8.69412 2.06415e-08 8.88921 0.0767144 9.04199 0.229492C9.19456 0.38214 9.2704 0.576693 9.27051 0.8125C9.27051 1.04853 9.19466 1.24373 9.04199 1.39648L5.79102 4.64648L9.04102 7.89648C9.19376 8.04923 9.27047 8.24345 9.27051 8.47949C9.27051 8.7156 9.19379 8.90972 9.04102 9.0625C8.88824 9.21528 8.69412 9.29199 8.45801 9.29199C8.22197 9.29196 8.02774 9.21524 7.875 9.0625L4.04102 5.22949C3.95788 5.14628 3.89894 5.05604 3.86426 4.95898C3.82955 4.86181 3.81252 4.75753 3.8125 4.64648C3.8125 4.53545 3.82958 4.43115 3.86426 4.33398C3.89898 4.23676 3.95768 4.14583 4.04102 4.0625L7.875 0.229492C8.02772 0.0768577 8.22205 3.5067e-05 8.45801 0Z" fill="#B0B0B0"/>
</svg>
