<svg width="10" height="10" viewBox="0 0 10 10" fill="none" xmlns="http://www.w3.org/2000/svg">
<path d="M0.8125 0C1.04838 7.02088e-05 1.24282 0.0759164 1.39551 0.228516L5.22852 4.0625C5.31185 4.14583 5.37153 4.23579 5.40625 4.33301C5.44095 4.4302 5.45801 4.53444 5.45801 4.64551C5.45801 4.75658 5.44095 4.86082 5.40625 4.95801C5.37153 5.05523 5.31185 5.14518 5.22852 5.22852L1.39551 9.0625C1.24282 9.2151 1.04838 9.29095 0.8125 9.29102C0.576389 9.29102 0.381293 9.21528 0.228516 9.0625C0.0757381 8.90972 0 8.71463 0 8.47852C7.03634e-05 8.24264 0.0759164 8.04819 0.228516 7.89551L3.47852 4.64551L0.228516 1.39551C0.0759165 1.24282 7.01931e-05 1.04838 0 0.8125C0 0.576389 0.0757378 0.381293 0.228516 0.228516C0.381293 0.0757378 0.576389 0 0.8125 0ZM4.60352 0C4.83963 0 5.03472 0.0757378 5.1875 0.228516L9.02051 4.0625C9.1037 4.14575 9.16257 4.2359 9.19727 4.33301C9.23199 4.43023 9.24902 4.5344 9.24902 4.64551C9.24902 4.75662 9.23199 4.86079 9.19727 4.95801C9.16257 5.05512 9.1037 5.14526 9.02051 5.22852L5.1875 9.0625C5.03472 9.21528 4.83963 9.29102 4.60352 9.29102C4.3676 9.29098 4.17321 9.21508 4.02051 9.0625C3.86773 8.90972 3.79102 8.71463 3.79102 8.47852C3.79109 8.24255 3.8678 8.04821 4.02051 7.89551L7.27051 4.64551L4.02051 1.39551C3.8678 1.2428 3.79109 1.04846 3.79102 0.8125C3.79102 0.576389 3.86773 0.381293 4.02051 0.228516C4.17321 0.0759355 4.3676 3.51484e-05 4.60352 0Z" fill="#B0B0B0"/>
</svg>
