<svg width="25" height="25" viewBox="0 0 25 25" fill="none" xmlns="http://www.w3.org/2000/svg">
<path d="M4.71501 7.86219L12.0483 4.13638C12.333 3.99176 12.6696 3.99176 12.9543 4.13638L20.2876 7.86219C20.6232 8.03271 20.8346 8.37726 20.8346 8.75372V17.2418C20.8346 17.5982 20.645 17.9277 20.3368 18.1066L13.0034 22.3647C12.693 22.545 12.3097 22.545 11.9992 22.3647L4.66583 18.1066C4.35764 17.9277 4.16797 17.5982 4.16797 17.2418V8.75372C4.16797 8.37726 4.37939 8.03271 4.71501 7.86219Z" stroke="#969696" stroke-width="1.5" stroke-linecap="round"/>
<path d="M4.16797 8.07422L12.5013 12.2409" stroke="#969696" stroke-width="1.5" stroke-linecap="round"/>
<path d="M19.7917 8.07422L12.5 12.2409" stroke="#969696" stroke-width="1.5" stroke-linecap="round"/>
<path d="M12.5 21.6133V12.2383" stroke="#969696" stroke-width="1.5" stroke-linecap="round"/>
<path d="M15.8091 10.5654C16.1796 10.7506 16.6301 10.6004 16.8154 10.2299C17.0006 9.85946 16.8504 9.40895 16.4799 9.22371L16.1445 9.89453L15.8091 10.5654ZM8.33203 5.98828L7.99662 6.6591L15.8091 10.5654L16.1445 9.89453L16.4799 9.22371L8.66744 5.31746L8.33203 5.98828Z" fill="#969696"/>
</svg>
