<svg width="19" height="19" viewBox="0 0 19 19" fill="none" xmlns="http://www.w3.org/2000/svg">
<path d="M10.417 12.5C12.718 12.5002 14.583 14.3659 14.583 16.667V18.75H13.0205V16.667C13.0205 15.2289 11.8551 14.0627 10.417 14.0625H4.16699C2.72875 14.0625 1.5625 15.2288 1.5625 16.667V18.75H0V16.667C0 14.3658 1.86581 12.5 4.16699 12.5H10.417ZM14.583 12.5C16.8842 12.5 18.75 14.3658 18.75 16.667V18.75H17.1875V16.667C17.1875 15.3289 16.1777 14.2271 14.8789 14.0801C14.4087 13.4656 13.7362 12.9266 12.916 12.5H14.583ZM7.29199 0C10.1682 0.00017606 12.4998 2.33178 12.5 5.20801C12.5 8.08438 10.1683 10.4168 7.29199 10.417C4.41551 10.417 2.08301 8.08449 2.08301 5.20801C2.08318 2.33167 4.41562 0 7.29199 0ZM13.1104 2.12891C15.1221 2.4243 16.667 4.15622 16.667 6.25C16.667 8.55119 14.8012 10.417 12.5 10.417C12.0617 10.417 11.639 10.3481 11.2422 10.2227C11.6582 9.8082 12.0252 9.34487 12.3398 8.8457C12.3927 8.84891 12.4463 8.85449 12.5 8.85449C13.9382 8.85449 15.1045 7.68824 15.1045 6.25C15.1045 5.16421 14.4396 4.23366 13.4951 3.84277C13.4313 3.24885 13.2997 2.67536 13.1104 2.12891ZM7.29199 1.5625C5.27856 1.5625 3.64568 3.19462 3.64551 5.20801C3.64551 7.22155 5.27845 8.85449 7.29199 8.85449C9.30538 8.85432 10.9375 7.22144 10.9375 5.20801C10.9373 3.19473 9.30527 1.56268 7.29199 1.5625Z" />
</svg>
