<svg width="17" height="16" viewBox="0 0 17 16" fill="none" xmlns="http://www.w3.org/2000/svg">
<path d="M14.583 0C15.7335 0 16.6658 0.932606 16.666 2.08301V10.8799C16.6659 12.0303 15.7335 12.9629 14.583 12.9629H4.82129L4.72949 12.9668C4.51884 12.9854 4.31789 13.0678 4.1543 13.2041L1.70898 15.2422L1.57715 15.3369C0.949886 15.7191 0.1199 15.33 0.0117188 14.6035L0 14.4434V2.08301C0.000225362 0.932606 0.932554 0 2.08301 0H14.583ZM2.08301 1.5625C1.7955 1.5625 1.56273 1.79555 1.5625 2.08301V13.3301L3.1543 12.0039L3.33496 11.8662C3.76969 11.5641 4.28829 11.4004 4.82129 11.4004H14.583C14.8706 11.4004 15.1034 11.1674 15.1035 10.8799V2.08301C15.1033 1.79555 14.8705 1.5625 14.583 1.5625H2.08301Z" />
</svg>
