<svg width="15" height="19" viewBox="0 0 15 19" fill="none" xmlns="http://www.w3.org/2000/svg">
<path d="M9.71875 0C10.2919 0 10.8398 0.236705 11.2334 0.65332L14.0146 3.59668C14.3798 3.98334 14.5839 4.4955 14.584 5.02734V16.667C14.5838 17.8174 13.6505 18.75 12.5 18.75H2.08398C0.9335 18.75 0.00017623 17.8174 0 16.667V2.08301C0.000175835 0.932564 0.9335 5.03277e-08 2.08398 0H9.71875ZM2.08398 1.5625C1.79644 1.5625 1.56268 1.79551 1.5625 2.08301V16.667C1.56268 16.9545 1.79644 17.1875 2.08398 17.1875H12.5C12.7875 17.1875 13.0213 16.9545 13.0215 16.667V5.98926H10.417C9.41033 5.98926 8.59393 5.17361 8.59375 4.16699V1.5625H2.08398ZM10.417 13.2812C10.8485 13.2813 11.1982 13.631 11.1982 14.0625C11.1982 14.494 10.8485 14.8437 10.417 14.8438H3.125C2.69368 14.8436 2.34375 14.4939 2.34375 14.0625C2.34375 13.6311 2.69368 13.2814 3.125 13.2812H10.417ZM10.417 10.1562C10.8485 10.1563 11.1982 10.506 11.1982 10.9375C11.1982 11.369 10.8485 11.7187 10.417 11.7188H3.125C2.69368 11.7186 2.34375 11.3689 2.34375 10.9375C2.34375 10.5061 2.69368 10.1564 3.125 10.1562H10.417ZM6.25 7.03125C6.68147 7.03125 7.03125 7.38103 7.03125 7.8125C7.03125 8.24397 6.68147 8.59375 6.25 8.59375H3.125C2.69368 8.59357 2.34375 8.24386 2.34375 7.8125C2.34375 7.38114 2.69368 7.03143 3.125 7.03125H6.25ZM10.1562 4.16699C10.1564 4.31067 10.2733 4.42676 10.417 4.42676H12.6494L10.1562 1.78711V4.16699Z" />
</svg>
