<svg width="19" height="21" viewBox="0 0 19 21" fill="none" xmlns="http://www.w3.org/2000/svg">
<path d="M12.5 0C13.0753 2.57623e-07 13.542 0.466696 13.542 1.04199V2.08398H16.667C17.8174 2.08416 18.75 3.01651 18.75 4.16699V18.75C18.75 19.8288 17.9296 20.7157 16.8789 20.8223L16.667 20.834H2.08301L1.87109 20.8223C0.89031 20.7228 0.110177 19.9437 0.0107422 18.9629L0 18.75V4.16699C0 3.01651 0.932564 2.08416 2.08301 2.08398H5.20801V1.04199C5.20801 0.466696 5.6747 0 6.25 0C6.8253 0 7.29199 0.466696 7.29199 1.04199V2.08398H11.458V1.04199C11.458 0.466696 11.9247 0 12.5 0ZM1.5625 9.375V18.75C1.5625 19.0375 1.79551 19.2713 2.08301 19.2715H16.667C16.9545 19.2713 17.1875 19.0375 17.1875 18.75V9.375H1.5625ZM7.91699 15.625C8.14696 15.6252 8.33301 15.812 8.33301 16.042V17.292C8.33301 17.522 8.14696 17.7088 7.91699 17.709H6.66699C6.43687 17.709 6.25 17.5221 6.25 17.292V16.042C6.25 15.8119 6.43687 15.625 6.66699 15.625H7.91699ZM12.083 15.625C12.3131 15.625 12.5 15.8119 12.5 16.042V17.292C12.5 17.5221 12.3131 17.709 12.083 17.709H10.833C10.603 17.7088 10.417 17.522 10.417 17.292V16.042C10.417 15.812 10.603 15.6252 10.833 15.625H12.083ZM7.91699 11.459C8.14685 11.4592 8.33283 11.6451 8.33301 11.875V13.125C8.33301 13.355 8.14696 13.5418 7.91699 13.542H6.66699C6.43687 13.542 6.25 13.3551 6.25 13.125V11.875C6.25018 11.645 6.43698 11.459 6.66699 11.459H7.91699ZM12.083 11.459C12.313 11.459 12.4998 11.645 12.5 11.875V13.125C12.5 13.3551 12.3131 13.542 12.083 13.542H10.833C10.603 13.5418 10.417 13.355 10.417 13.125V11.875C10.4172 11.6451 10.6031 11.4592 10.833 11.459H12.083ZM2.08301 3.64648C1.79551 3.64666 1.5625 3.87945 1.5625 4.16699V7.8125H17.1875V4.16699C17.1875 3.87945 16.9545 3.64666 16.667 3.64648H13.542V4.16699C13.542 4.74229 13.0753 5.20898 12.5 5.20898C11.9247 5.20898 11.458 4.74229 11.458 4.16699V3.64648H7.29199V4.16699C7.29199 4.74229 6.8253 5.20898 6.25 5.20898C5.6747 5.20898 5.20801 4.74229 5.20801 4.16699V3.64648H2.08301Z" />
</svg>
