<svg width="20" height="14" viewBox="0 0 20 14" fill="none" xmlns="http://www.w3.org/2000/svg">
<path d="M19.0098 0C19.0402 2.21634e-07 19.0701 0.00150631 19.0996 0.00488281C19.1088 0.0059293 19.1178 0.00741871 19.127 0.00878906C19.1695 0.0151992 19.2109 0.0250909 19.251 0.0380859C19.3155 0.0589802 19.3778 0.0885829 19.4365 0.126953C19.442 0.130563 19.4477 0.133951 19.4531 0.137695C19.4784 0.155162 19.5027 0.174482 19.5264 0.195312C19.5345 0.202498 19.542 0.21033 19.5498 0.217773C19.5568 0.224475 19.5636 0.231326 19.5703 0.238281C19.6343 0.30423 19.6835 0.379042 19.7197 0.458984C19.7371 0.497339 19.7526 0.536758 19.7637 0.578125C19.7644 0.580721 19.765 0.583335 19.7656 0.585938C19.7772 0.630777 19.7847 0.677034 19.7881 0.724609C19.7886 0.731445 19.7887 0.73827 19.7891 0.745117C19.7896 0.757003 19.791 0.769232 19.791 0.78125V5.98926C19.791 6.42073 19.4412 6.7705 19.0098 6.77051C18.5783 6.77051 18.2285 6.42073 18.2285 5.98926V2.84668L11.7832 10.1514C11.5289 10.4396 11.1027 10.5002 10.7783 10.2939L5.6582 7.03613L1.40527 12.708C1.14633 13.0529 0.656593 13.1231 0.311523 12.8643C-0.0333031 12.6053 -0.102407 12.1156 0.15625 11.7705L4.84375 5.52051L4.94434 5.40918C5.20017 5.17768 5.58643 5.13853 5.8877 5.33008L11.0527 8.61719L17.2773 1.5625H13.8018C13.3704 1.5625 13.0207 1.21257 13.0205 0.78125C13.0205 0.349778 13.3703 0 13.8018 0H19.0098Z" />
</svg>
