<svg width="17" height="17" viewBox="0 0 17 17" fill="none" xmlns="http://www.w3.org/2000/svg">
<path d="M15.3049 8.88326C15.1689 8.73121 15.0939 8.53573 15.0939 8.33333C15.0939 8.13094 15.1689 7.93546 15.3049 7.78341L16.3906 6.58357C16.5103 6.45248 16.5846 6.28753 16.6029 6.11239C16.6212 5.93725 16.5825 5.76092 16.4924 5.6087L14.796 2.72576C14.7068 2.57372 14.5711 2.4532 14.4081 2.38138C14.2452 2.30957 14.0633 2.29012 13.8884 2.32582L12.2937 2.64244C12.0908 2.68363 11.8796 2.65043 11.6999 2.54912C11.5202 2.44781 11.3844 2.28539 11.3183 2.09252L10.8008 0.567723C10.7439 0.402228 10.6355 0.258486 10.4909 0.156814C10.3463 0.0551416 10.1729 0.000682237 9.99503 0.00113314H6.60212C6.41715 -0.0083506 6.23411 0.0418996 6.08094 0.144209C5.92778 0.246518 5.81292 0.395262 5.7539 0.567723L5.27889 2.09252C5.21273 2.28539 5.07699 2.44781 4.89728 2.54912C4.71758 2.65043 4.50634 2.68363 4.30343 2.64244L2.66636 2.32582C2.50057 2.3028 2.33156 2.3285 2.18062 2.39967C2.02967 2.47084 1.90355 2.58431 1.81813 2.72576L0.121679 5.6087C0.029358 5.75922 -0.0121525 5.93456 0.00308207 6.10966C0.0183166 6.28475 0.089516 6.45062 0.206501 6.58357L1.28375 7.78341C1.41973 7.93546 1.49473 8.13094 1.49473 8.33333C1.49473 8.53573 1.41973 8.73121 1.28375 8.88326L0.206501 10.0831C0.089516 10.216 0.0183166 10.3819 0.00308207 10.557C-0.0121525 10.7321 0.029358 10.9074 0.121679 11.058L1.81813 13.9409C1.90728 14.0929 2.04301 14.2135 2.20598 14.2853C2.36896 14.3571 2.55085 14.3765 2.72573 14.3408L4.3204 14.0242C4.52331 13.983 4.73455 14.0162 4.91425 14.1175C5.09395 14.2189 5.22969 14.3813 5.29586 14.5742L5.81327 16.0989C5.87229 16.2714 5.98716 16.4201 6.14032 16.5225C6.29348 16.6248 6.47653 16.675 6.6615 16.6655H10.0544C10.2322 16.666 10.4057 16.6115 10.5503 16.5099C10.6949 16.4082 10.8033 16.2644 10.8602 16.0989L11.3776 14.5742C11.4438 14.3813 11.5795 14.2189 11.7592 14.1175C11.9389 14.0162 12.1502 13.983 12.3531 14.0242L13.9478 14.3408C14.1226 14.3765 14.3045 14.3571 14.4675 14.2853C14.6305 14.2135 14.7662 14.0929 14.8554 13.9409L16.5518 11.058C16.6419 10.9057 16.6805 10.7294 16.6622 10.5543C16.644 10.3791 16.5697 10.2142 16.45 10.0831L15.3049 8.88326ZM14.0411 9.99977L14.7196 10.7497L13.6339 12.5994L12.633 12.3994C12.0221 12.2768 11.3866 12.3787 10.8471 12.6859C10.3077 12.9931 9.90184 13.4842 9.70663 14.0659L9.3843 14.9991H7.21284L6.90748 14.0492C6.71227 13.4675 6.30642 12.9764 5.76696 12.6692C5.22751 12.3621 4.59202 12.2601 3.98111 12.3828L2.9802 12.5828L1.87751 10.7413L2.55609 9.99144C2.97338 9.53315 3.20407 8.93986 3.20407 8.325C3.20407 7.71014 2.97338 7.11685 2.55609 6.65856L1.87751 5.90866L2.96323 4.07558L3.96414 4.27555C4.57505 4.39822 5.21055 4.29628 5.75 3.98909C6.28945 3.6819 6.6953 3.19083 6.89052 2.60911L7.21284 1.66757H9.3843L9.70663 2.61744C9.90184 3.19916 10.3077 3.69023 10.8471 3.99742C11.3866 4.30462 12.0221 4.40655 12.633 4.28388L13.6339 4.08391L14.7196 5.93366L14.0411 6.68356C13.6285 7.1408 13.4006 7.73065 13.4006 8.34167C13.4006 8.95268 13.6285 9.54254 14.0411 9.99977ZM8.29857 5.00045C7.62752 5.00045 6.97154 5.19592 6.41358 5.56215C5.85562 5.92837 5.42074 6.44889 5.16394 7.0579C4.90714 7.6669 4.83995 8.33703 4.97086 8.98355C5.10178 9.63006 5.42492 10.2239 5.89943 10.69C6.37394 11.1561 6.97849 11.4736 7.63665 11.6022C8.29481 11.7308 8.97701 11.6648 9.59698 11.4125C10.217 11.1603 10.7469 10.7331 11.1197 10.185C11.4925 9.63689 11.6915 8.99252 11.6915 8.33333C11.6915 7.4494 11.334 6.60167 10.6977 5.97663C10.0614 5.35159 9.19843 5.00045 8.29857 5.00045ZM8.29857 9.99977C7.96305 9.99977 7.63506 9.90204 7.35608 9.71893C7.0771 9.53582 6.85966 9.27555 6.73126 8.97105C6.60286 8.66655 6.56926 8.33148 6.63472 8.00823C6.70018 7.68497 6.86175 7.38804 7.099 7.15498C7.33625 6.92193 7.63853 6.76321 7.96761 6.69891C8.29669 6.63461 8.63779 6.66761 8.94778 6.79374C9.25776 6.91987 9.52271 7.13346 9.70912 7.40751C9.89553 7.68155 9.99503 8.00374 9.99503 8.33333C9.99503 8.7753 9.81629 9.19917 9.49815 9.51168C9.18 9.8242 8.7485 9.99977 8.29857 9.99977Z" />
</svg>
