<svg width="14" height="15" viewBox="0 0 14 15" fill="none" xmlns="http://www.w3.org/2000/svg">
<path d="M6.99902 7.24805C7.92368 7.24805 8.84003 7.42486 9.69434 7.76855C10.5487 8.11237 11.3255 8.61669 11.9795 9.25195C12.6334 9.88722 13.1519 10.6417 13.5059 11.4717C13.7544 12.0547 13.9186 12.6678 13.9941 13.292C14.047 13.7309 13.6833 14.0908 13.2412 14.0908C13.2146 14.0908 13.188 14.0885 13.1621 14.0859V14.0908H0.836914V14.0859C0.810784 14.0885 0.783671 14.0908 0.756836 14.0908C0.315051 14.0905 -0.0479391 13.7306 0.00488281 13.292C0.0803968 12.6679 0.24367 12.0546 0.492188 11.4717C0.846076 10.6417 1.36571 9.88723 2.01953 9.25195C2.67331 8.61686 3.44959 8.11236 4.30371 7.76855C5.15797 7.42478 6.07438 7.24814 6.99902 7.24805ZM7.05664 0C7.9369 0.000120781 8.78085 0.350249 9.40332 0.972656C10.0259 1.59525 10.376 2.43983 10.376 3.32031C10.3759 3.97673 10.1811 4.61826 9.81641 5.16406C9.45162 5.70997 8.93276 6.13546 8.32617 6.38672C7.71967 6.63783 7.05203 6.70424 6.4082 6.57617C5.76438 6.44802 5.17317 6.13118 4.70898 5.66699C4.24481 5.20276 3.92791 4.61163 3.7998 3.96777C3.67174 3.32391 3.7381 2.65633 3.98926 2.0498C4.24051 1.44323 4.66603 0.924356 5.21191 0.55957C5.75779 0.194843 6.40013 3.7771e-05 7.05664 0Z" fill="#121212"/>
</svg>
