<svg width="6" height="10" viewBox="0 0 6 10" fill="none" xmlns="http://www.w3.org/2000/svg">
<path d="M1.97982 4.64518L5.22982 7.89518C5.3826 8.04796 5.45898 8.2424 5.45898 8.47852C5.45898 8.71463 5.3826 8.90907 5.22982 9.06185C5.07704 9.21463 4.8826 9.29102 4.64648 9.29102C4.41037 9.29102 4.21593 9.21463 4.06315 9.06185L0.229818 5.22852C0.146485 5.14518 0.0874571 5.0549 0.0527352 4.95768C0.0180129 4.86046 0.000651756 4.75629 0.000651766 4.64518C0.000651775 4.53407 0.0180129 4.4299 0.0527353 4.33268C0.0874571 4.23546 0.146485 4.14518 0.229818 4.06185L4.06315 0.228516C4.21593 0.0757378 4.41037 -0.000651451 4.64649 -0.000651431C4.8826 -0.00065141 5.07704 0.0757379 5.22982 0.228516C5.3826 0.381293 5.45899 0.575738 5.45899 0.811849C5.45899 1.04796 5.3826 1.2424 5.22982 1.39518L1.97982 4.64518Z" fill="#B0B0B0"/>
</svg>
