<svg width="16" height="16" viewBox="0 0 16 16" fill="none" xmlns="http://www.w3.org/2000/svg">
<path d="M7.70605 2.67578C10.8616 2.83589 13.3711 5.44531 13.3711 8.64062L13.3633 8.94727C13.3069 10.059 12.9444 11.0894 12.3613 11.959L14.1729 11.3877C14.4362 11.3046 14.7177 11.4515 14.8008 11.7148C14.8834 11.978 14.7377 12.2587 14.4746 12.3418L11.1416 13.3926L9.70703 10.2061C9.59377 9.95434 9.70537 9.65833 9.95703 9.54492C10.2088 9.43155 10.5047 9.54418 10.6182 9.7959L11.415 11.5664C12.0148 10.7455 12.371 9.73524 12.3711 8.64062C12.3711 5.89453 10.1445 3.66814 7.39844 3.66797C4.65238 3.66814 2.42578 5.89453 2.42578 8.64062C2.42599 10.599 3.55931 12.2912 5.20508 13.1016C5.40662 13.2008 5.53773 13.4079 5.52051 13.6318C5.49467 13.9667 5.15932 14.1878 4.85547 14.0449C2.91647 13.1311 1.54808 11.2045 1.43359 8.94727L1.42578 8.64062C1.42578 5.34224 4.1001 2.66814 7.39844 2.66797L7.70605 2.67578Z" fill="#4E4E4E"/>
</svg>
