<svg width="24" height="24" viewBox="0 0 24 24" fill="none" xmlns="http://www.w3.org/2000/svg">
<path d="M9.25031 2C9.66434 2.00022 10.0003 2.33592 10.0003 2.75V20.2207C10.0003 20.6759 9.44087 20.895 9.13215 20.5605L4.77473 15.8389C4.47912 15.5186 4.70605 15 5.14191 15H8.50031V2.75C8.50031 2.33579 8.8361 2 9.25031 2Z" fill="#0065F8"/>
<path d="M14.7497 20.7227C14.3357 20.7224 13.9997 20.3867 13.9997 19.9727L13.9997 2.50195C13.9997 2.0468 14.5591 1.82766 14.8679 2.16211L19.2253 6.88379C19.5209 7.20408 19.294 7.72266 18.8581 7.72266L15.4997 7.72266L15.4997 19.9727C15.4997 20.3869 15.1639 20.7227 14.7497 20.7227Z" fill="#0065F8"/>
</svg>
