<svg width="20" height="20" viewBox="0 0 20 20" fill="none" xmlns="http://www.w3.org/2000/svg">
<path fill-rule="evenodd" clip-rule="evenodd" d="M10.5742 0.0166016C15.8299 0.31415 20 4.66989 20 10C20 15.3301 15.8298 19.6848 10.5742 19.9824C10.5691 19.9881 10.5647 19.9943 10.5596 20L10.542 19.9844C10.3625 19.994 10.1819 20 10 20C9.81781 20 9.63682 19.994 9.45703 19.9844L9.44043 20C9.4352 19.9942 9.43002 19.9883 9.4248 19.9824C4.16965 19.6844 0 15.3298 0 10C0 4.67022 4.16962 0.314632 9.4248 0.0166016C9.42987 0.0109202 9.43537 0.00565153 9.44043 0L9.45703 0.0146484C9.6368 0.00502921 9.81783 0 10 0C10.1818 0 10.3625 0.00506369 10.542 0.0146484L10.5596 0C10.5645 0.00549069 10.5693 0.0110827 10.5742 0.0166016ZM7.00586 10.75C7.09943 13.1644 7.9241 15.7697 10 18.3408C12.0759 15.7697 12.9006 13.1644 12.9941 10.75H7.00586ZM14.4951 10.75C14.4117 13.1666 13.6789 15.7414 11.9189 18.2793C15.4526 17.4636 18.1415 14.4475 18.4648 10.75H14.4951ZM1.53516 10.75C1.85848 14.4472 4.54692 17.4633 8.08008 18.2793C6.32034 15.7416 5.58825 13.1665 5.50488 10.75H1.53516ZM8.14844 1.7041C4.58154 2.49668 1.86057 5.5289 1.53516 9.25H5.53418C5.55957 8.90529 5.59666 8.56486 5.64551 8.22949C6.01989 5.65919 7.04562 3.39568 8.14844 1.7041ZM11.8506 1.7041C12.9535 3.39573 13.9801 5.65896 14.3545 8.22949C14.4033 8.56486 14.4404 8.90529 14.4658 9.25H18.4648C18.1394 5.52857 15.4179 2.49636 11.8506 1.7041ZM10 1.67871C8.80231 3.24525 7.53673 5.65258 7.12988 8.44531C7.09133 8.70999 7.06147 8.97841 7.03906 9.25H12.9609C12.9385 8.97841 12.9087 8.70999 12.8701 8.44531C12.4633 5.65258 11.1977 3.24525 10 1.67871Z" fill="#121212"/>
</svg>
