<svg width="24" height="24" viewBox="0 0 24 24" fill="none" xmlns="http://www.w3.org/2000/svg">
<path d="M5.75 18.0001C5.75 18.1381 5.86193 18.2501 6 18.2501H18C18.1381 18.2501 18.25 18.1381 18.25 18.0001V15.0001H19.75V18.0001C19.75 18.9666 18.9665 19.7501 18 19.7501H6C5.0335 19.7501 4.25 18.9666 4.25 18.0001V15.0001H5.75V18.0001Z" fill="#121212"/>
<path d="M11.5264 4.41803C11.8209 4.17779 12.2557 4.19526 12.5303 4.46979L16.5303 8.46979L15.4697 9.53034L12.75 6.81061V16.0001H11.25V6.81061L8.53027 9.53034L7.46973 8.46979L11.4697 4.46979L11.5264 4.41803Z" fill="#121212"/>
</svg>
